<svg width="49" height="72" viewBox="0 0 49 72" fill="none" xmlns="http://www.w3.org/2000/svg">
<path d="M1.99858 29L1.00526 28.8846L1.99858 29ZM44.7086 65.2073C45.0991 64.8168 45.0991 64.1836 44.7086 63.7931L38.3446 57.4291C37.9541 57.0386 37.321 57.0386 36.9304 57.4291C36.5399 57.8196 36.5399 58.4528 36.9304 58.8433L42.5873 64.5002L36.9304 70.157C36.5399 70.5476 36.5399 71.1807 36.9304 71.5712C37.321 71.9618 37.9541 71.9618 38.3446 71.5712L44.7086 65.2073ZM48.0425 1.00065C36.214 0.49729 25.1404 1.87194 16.6709 6.17058C8.14003 10.5004 2.29529 17.7811 1.00526 28.8846L2.9919 29.1154C4.19981 18.7187 9.60578 11.9993 17.5761 7.95402C25.6078 3.87757 36.286 2.50216 47.9575 2.99884L48.0425 1.00065ZM1.00526 28.8846C-0.274493 39.8996 2.8004 49.1227 10.1535 55.5647C17.4669 61.9719 28.8676 65.5002 44.0015 65.5002V63.5002C29.1331 63.5002 18.2834 60.0282 11.4714 54.0603C4.69918 48.1272 1.77376 39.6001 2.9919 29.1154L1.00526 28.8846Z" fill="#1F242F"/>
</svg>
