<svg width="20" height="20" viewBox="0 0 20 20" fill="none" xmlns="http://www.w3.org/2000/svg">
<path d="M17.8 3.62C19.0512 5.13584 19.8178 6.99291 20 8.95H17.94C17.74 7.52 17.16 6.17 16.26 5.05L17.8 3.62ZM11 0C12.96 0.19 14.81 0.95 16.33 2.21L14.9 3.64C13.7707 2.75326 12.4236 2.18678 11 2V0ZM9 0.00999999C7.04 0.21 5.19 0.98 3.67 2.22L5.1 3.64C6.23035 2.75684 7.57738 2.19386 9 2.01V0.00999999ZM2.26 3.62L3.63 5.01V5.05C2.74684 6.18035 2.18386 7.52738 2 8.95H0C0.21 6.99 1 5.13 2.26 3.62ZM0 11.95V16.95L1.6 15.35C3.38 18.12 6.47 19.95 10 19.95C14.82 19.95 18.87 16.5 19.8 11.95H17.75C16.86 15.4 13.72 17.95 10 17.95C7.05 17.95 4.39 16.34 3 13.95L5 11.95H0ZM10 14.95L11.56 11.53L15 9.95L11.56 8.39L10 4.95L8.43 8.39L5 9.95L8.43 11.53L10 14.95Z" fill="#19525A"/>
</svg>
