<svg width="25" height="26" viewBox="0 0 25 26" fill="none" xmlns="http://www.w3.org/2000/svg">
<path d="M19.6031 1V3.4M5.20312 1V3.4" stroke="white" stroke-width="1.5" stroke-linecap="round" stroke-linejoin="round"/>
<path d="M12.3962 14.1993H12.407M12.3962 18.9993H12.407M17.1908 14.1993H17.2016M7.60156 14.1993H7.61233M7.60156 18.9993H7.61233" stroke="white" stroke-width="2" stroke-linecap="round" stroke-linejoin="round"/>
<path d="M2.20312 8.19934H22.6031" stroke="white" stroke-width="1.5" stroke-linecap="round" stroke-linejoin="round"/>
<path d="M1 13.2912C1 8.06247 1 5.44808 2.50255 3.82371C4.00509 2.19934 6.42339 2.19934 11.26 2.19934H13.54C18.3766 2.19934 20.795 2.19934 22.2975 3.82371C23.8 5.44808 23.8 8.06247 23.8 13.2912V13.9075C23.8 19.1363 23.8 21.7506 22.2975 23.375C20.795 24.9994 18.3766 24.9994 13.54 24.9994H11.26C6.42339 24.9994 4.00509 24.9994 2.50255 23.375C1 21.7506 1 19.1363 1 13.9075V13.2912Z" stroke="white" stroke-width="1.5" stroke-linecap="round" stroke-linejoin="round"/>
<path d="M1.60156 8.19934H23.2016" stroke="white" stroke-width="1.5" stroke-linecap="round" stroke-linejoin="round"/>
</svg>
