<svg width="26" height="22" viewBox="0 0 26 22" fill="none" xmlns="http://www.w3.org/2000/svg">
<path d="M11.7969 6.20068H14.1969" stroke="white" stroke-width="1.5" stroke-linecap="round"/>
<path d="M1 9.80002C1 5.84023 1 3.86032 2.23016 2.63018C3.4603 1.40002 5.4402 1.40002 9.4 1.40002H10.6C14.5598 1.40002 16.5396 1.40002 17.7699 2.63018C19 3.86032 19 5.84023 19 9.80002V12.2C19 16.1598 19 18.1397 17.7699 19.3699C16.5396 20.6 14.5598 20.6 10.6 20.6H9.4C5.4402 20.6 3.4603 20.6 2.23016 19.3699C1 18.1397 1 16.1598 1 12.2V9.80002Z" stroke="white" stroke-width="1.5"/>
<path d="M19 7.28705L19.1511 7.16238C21.69 5.0675 22.9595 4.02006 23.9798 4.52581C25 5.03156 25 6.70829 25 10.0617V11.9383C25 15.2918 25 16.9685 23.9798 17.4743C22.9595 17.9799 21.69 16.9326 19.1511 14.8376L19 14.7129" stroke="white" stroke-width="1.5" stroke-linecap="round"/>
</svg>
