<svg width="22" height="12" viewBox="0 0 22 12" fill="none" xmlns="http://www.w3.org/2000/svg">
<path fill-rule="evenodd" clip-rule="evenodd" d="M5.749 1.5C4.62183 1.5 3.54083 1.94777 2.7438 2.7448C1.94677 3.54183 1.499 4.62283 1.499 5.75C1.499 6.87717 1.94677 7.95817 2.7438 8.7552C3.54083 9.55223 4.62183 10 5.749 10C6.346 10 6.794 9.893 7.156 9.716C7.518 9.54 7.835 9.274 8.142 8.9C8.682 8.24 9.125 7.342 9.709 6.159C9.826 5.922 9.949 5.674 10.079 5.415L10.419 4.725C11 3.544 11.536 2.455 12.196 1.65C12.606 1.149 13.086 0.727 13.686 0.435C14.286 0.143 14.966 3.21201e-07 15.749 3.21201e-07C16.6601 3.21201e-07 17.5582 0.216506 18.3692 0.631676C19.1802 1.04685 19.8809 1.64879 20.4136 2.38792C20.9464 3.12704 21.2958 3.98217 21.4332 4.88285C21.5706 5.78353 21.492 6.70397 21.2039 7.56831C20.9158 8.43265 20.4264 9.21616 19.7761 9.85426C19.1258 10.4924 18.3331 10.9668 17.4635 11.2385C16.5938 11.5101 15.672 11.5712 14.7741 11.4168C13.8762 11.2623 13.0279 10.8967 12.299 10.35C12.1399 10.2307 12.0347 10.053 12.0065 9.85607C11.9784 9.65915 12.0297 9.45913 12.149 9.3C12.2683 9.14087 12.446 9.03567 12.6429 9.00754C12.8398 8.97941 13.0399 9.03065 13.199 9.15C13.7377 9.55405 14.3648 9.8243 15.0285 9.93847C15.6921 10.0526 16.3734 10.0075 17.0162 9.80668C17.659 9.60589 18.2449 9.25523 18.7256 8.78358C19.2062 8.31194 19.568 7.73283 19.7809 7.09397C19.9939 6.45511 20.052 5.77478 19.9504 5.10906C19.8488 4.44335 19.5905 3.81129 19.1968 3.26498C18.803 2.71867 18.2851 2.27376 17.6856 1.96689C17.0862 1.66003 16.4224 1.5 15.749 1.5C15.152 1.5 14.704 1.607 14.342 1.784C13.98 1.96 13.663 2.226 13.356 2.6C12.816 3.26 12.373 4.158 11.789 5.341C11.672 5.578 11.549 5.826 11.419 6.085L11.079 6.775C10.498 7.956 9.962 9.045 9.302 9.851C8.892 10.351 8.412 10.773 7.812 11.065C7.212 11.357 6.532 11.5 5.749 11.5C4.83794 11.4998 3.93997 11.2832 3.12906 10.8679C2.31815 10.4527 1.61753 9.85063 1.08492 9.11148C0.552312 8.37232 0.202967 7.51718 0.0656694 6.61653C-0.0716278 5.71588 0.00705349 4.7955 0.29523 3.93122C0.583406 3.06694 1.07283 2.28351 1.72317 1.64548C2.37351 1.00745 3.16615 0.533083 4.03578 0.261473C4.9054 -0.0101366 5.82712 -0.0712171 6.72499 0.0832642C7.62285 0.237745 8.47116 0.603367 9.2 1.15C9.27879 1.20916 9.34516 1.28326 9.39532 1.36807C9.44547 1.45288 9.47843 1.54674 9.49232 1.64429C9.5062 1.74184 9.50073 1.84116 9.47623 1.9366C9.45172 2.03203 9.40866 2.12171 9.3495 2.2005C9.29034 2.27929 9.21624 2.34566 9.13143 2.39582C9.04662 2.44597 8.95276 2.47893 8.85521 2.49282C8.75767 2.5067 8.65834 2.50123 8.5629 2.47673C8.46747 2.45222 8.37779 2.40916 8.299 2.35C7.56409 1.79682 6.66883 1.4984 5.749 1.5Z" fill="black"/>
</svg>
