<svg width="24" height="25" viewBox="0 0 24 25" fill="none" xmlns="http://www.w3.org/2000/svg">
<mask id="mask0_5403_10597" style="mask-type:luminance" maskUnits="userSpaceOnUse" x="0" y="0" width="24" height="25">
<path d="M0 0H24V25H0V0Z" fill="white"/>
</mask>
<g mask="url(#mask0_5403_10597)">
<path d="M20 11C20 7.229 20 5.343 18.828 4.172C17.765 3.109 16.114 3.01 13 3M20 15C20 18.771 20 20.657 18.828 21.828C17.657 23 15.771 23 12 23C8.229 23 6.343 23 5.172 21.828C4 20.658 4 18.772 4 15V12.001" stroke="#19525A" stroke-width="1.5" stroke-linecap="round"/>
<path d="M2.73 5.8L2.176 6.306C2.24628 6.38301 2.33185 6.44453 2.42723 6.48662C2.52262 6.52871 2.62574 6.55045 2.73 6.55045C2.83426 6.55045 2.93738 6.52871 3.03277 6.48662C3.12816 6.44453 3.21372 6.38301 3.284 6.306L2.73 5.8ZM4.014 5.506C4.1482 5.35907 4.21854 5.16485 4.20953 4.96606C4.20053 4.76727 4.11293 4.5802 3.966 4.446C3.81907 4.3118 3.62485 4.24147 3.42606 4.25047C3.22727 4.25947 3.0402 4.34707 2.906 4.494L4.014 5.506ZM2.554 4.494C2.4198 4.34707 2.23273 4.25947 2.03394 4.25047C1.83515 4.24147 1.64093 4.3118 1.494 4.446C1.34707 4.5802 1.25947 4.76727 1.25047 4.96606C1.24147 5.16485 1.3118 5.35907 1.446 5.506L2.554 4.494ZM10.27 4.2L10.824 3.694C10.7537 3.61699 10.6682 3.55547 10.5728 3.51338C10.4774 3.47129 10.3743 3.44955 10.27 3.44955C10.1657 3.44955 10.0626 3.47129 9.96723 3.51338C9.87185 3.55547 9.78628 3.61699 9.716 3.694L10.27 4.2ZM8.986 4.494C8.8518 4.64093 8.78147 4.83515 8.79047 5.03394C8.79947 5.23273 8.88707 5.4198 9.034 5.554C9.18093 5.6882 9.37515 5.75853 9.57394 5.74953C9.77273 5.74053 9.9598 5.65293 10.094 5.506L8.986 4.494ZM10.446 5.506C10.5125 5.57875 10.5926 5.6377 10.6818 5.67949C10.771 5.72128 10.8676 5.74508 10.9661 5.74953C11.0645 5.75399 11.1628 5.73902 11.2555 5.70547C11.3481 5.67192 11.4332 5.62045 11.506 5.554C11.5788 5.48755 11.6377 5.40742 11.6795 5.31819C11.7213 5.22896 11.7451 5.13237 11.7495 5.03394C11.754 4.93551 11.739 4.83717 11.7055 4.74452C11.6719 4.65188 11.6205 4.56675 11.554 4.494L10.446 5.506ZM4.576 7.306C4.51008 7.23279 4.43038 7.17328 4.34146 7.13087C4.25253 7.08846 4.15613 7.06397 4.05775 7.05882C3.85905 7.04841 3.66436 7.11736 3.5165 7.2505C3.36864 7.38364 3.27973 7.57006 3.26932 7.76876C3.25891 7.96745 3.32786 8.16214 3.461 8.31L4.576 7.306ZM8.54 2.83C8.66608 2.97986 8.84577 3.07447 9.04068 3.09359C9.23559 3.11271 9.43025 3.05484 9.58305 2.93234C9.73585 2.80984 9.83467 2.63243 9.85839 2.43802C9.88212 2.24362 9.82886 2.04765 9.71 1.892L8.54 2.83ZM6.38 0.25C3.886 0.25 1.98 2.443 1.98 5H3.48C3.48 3.14 4.84 1.75 6.38 1.75V0.25ZM1.98 5L1.981 5.8H3.481L3.48 5H1.98ZM3.284 6.306L4.014 5.506L2.906 4.494L2.176 5.294L3.284 6.306ZM3.284 5.294L2.554 4.494L1.446 5.506L2.176 6.306L3.284 5.294ZM6.62 9.75C9.114 9.75 11.02 7.557 11.02 5H9.52C9.52 6.86 8.16 8.25 6.62 8.25V9.75ZM11.02 5V4.2H9.52V5H11.02ZM9.717 3.694L8.987 4.494L10.095 5.506L10.825 4.706L9.717 3.694ZM9.717 4.706L10.446 5.506L11.555 4.494L10.824 3.694L9.717 4.706ZM3.46 8.309C4.25 9.188 5.368 9.75 6.618 9.75V8.25C5.833 8.25 5.109 7.9 4.575 7.306L3.46 8.309ZM9.71 1.892C8.914 0.9 7.725 0.25 6.38 0.25V1.75C7.223 1.75 7.998 2.154 8.54 2.83L9.71 1.892Z" fill="#19525A"/>
<path d="M15 20H9" stroke="#19525A" stroke-width="1.5" stroke-linecap="round"/>
</g>
</svg>
