<svg width="25" height="26" viewBox="0 0 25 26" fill="none" xmlns="http://www.w3.org/2000/svg">
<path d="M1.03591 15.8728C0.780726 17.4965 1.9216 18.6234 3.31846 19.185C8.67377 21.3383 16.1262 21.3383 21.4815 19.185C22.8784 18.6234 24.0192 17.4965 23.7641 15.8728C23.6073 14.875 22.8318 14.0441 22.2573 13.2328C21.5048 12.157 21.43 10.9836 21.4299 9.73529C21.4299 4.91092 17.3871 1 12.4 1C7.41296 1 3.37016 4.91092 3.37016 9.73529C3.37004 10.9836 3.29527 12.157 2.54273 13.2328C1.96821 14.0441 1.19273 14.875 1.03591 15.8728Z" stroke="white" stroke-width="1.5" stroke-linecap="round" stroke-linejoin="round"/>
<path d="M8.79688 23.7998C9.75223 24.5461 11.0139 24.9998 12.3969 24.9998C13.7799 24.9998 15.0416 24.5461 15.9969 23.7998" stroke="white" stroke-width="1.5" stroke-linecap="round" stroke-linejoin="round"/>
</svg>
