<svg width="24" height="20" viewBox="0 0 24 20" fill="none" xmlns="http://www.w3.org/2000/svg">
<path d="M1 2.00008V8.00008M1 8.00008H7M1 8.00008L5.64 3.64008C6.71475 2.56479 8.04437 1.77928 9.50481 1.35685C10.9652 0.934417 12.5089 0.888827 13.9917 1.22433C15.4745 1.55984 16.8482 2.26551 17.9845 3.27549C19.1209 4.28548 19.9828 5.56686 20.49 7.00008M23 18.0001V12.0001M23 12.0001H17M23 12.0001L18.36 16.3601C17.2853 17.4354 15.9556 18.2209 14.4952 18.6433C13.0348 19.0657 11.4911 19.1113 10.0083 18.7758C8.52547 18.4403 7.1518 17.7346 6.01547 16.7247C4.87913 15.7147 4.01717 14.4333 3.51 13.0001" stroke="#19525A" stroke-width="2" stroke-linecap="round" stroke-linejoin="round"/>
</svg>
