<svg width="24" height="26" viewBox="0 0 24 26" fill="none" xmlns="http://www.w3.org/2000/svg">
<path d="M7.77158 2.37471L5.72579 3.32034C2.57526 4.77663 1 5.50476 1 6.7C1 7.89523 2.57526 8.62337 5.7258 10.0797L7.77158 11.0253C9.75424 11.9417 10.7457 12.4 11.8 12.4C12.8543 12.4 13.8458 11.9417 15.8284 11.0253L17.8742 10.0797C21.0248 8.62337 22.6 7.89523 22.6 6.7C22.6 5.50476 21.0248 4.77663 17.8742 3.32034L15.8284 2.37471C13.8458 1.45823 12.8543 1 11.8 1C10.7457 1 9.75424 1.45823 7.77158 2.37471Z" stroke="white" stroke-width="1.5" stroke-linecap="round" stroke-linejoin="round"/>
<path d="M22.3456 11.9165C22.5152 12.1549 22.6 12.4036 22.6 12.6769C22.6 13.8551 21.0248 14.5729 17.8742 16.0085L15.8284 16.9407C13.8458 17.844 12.8543 18.2958 11.8 18.2958C10.7457 18.2958 9.75424 17.844 7.77158 16.9407L5.7258 16.0085C2.57526 14.5729 1 13.8551 1 12.6769C1 12.4036 1.0848 12.1549 1.2544 11.9165" stroke="white" stroke-width="1.5" stroke-linecap="round" stroke-linejoin="round"/>
<path d="M21.852 18.1195C22.3506 18.5167 22.6 18.9126 22.6 19.3813C22.6 20.5596 21.0248 21.2773 17.8742 22.7129L15.8284 23.645C13.8458 24.5485 12.8543 25.0002 11.8 25.0002C10.7457 25.0002 9.75424 24.5485 7.77158 23.645L5.7258 22.7129C2.57526 21.2773 1 20.5596 1 19.3813C1 18.9126 1.24934 18.5167 1.74801 18.1195" stroke="white" stroke-width="1.5" stroke-linecap="round" stroke-linejoin="round"/>
</svg>
