<svg width="26" height="26" viewBox="0 0 26 26" fill="none" xmlns="http://www.w3.org/2000/svg">
<path d="M16.7574 1.6C15.5754 1.21066 14.3123 1 13 1C6.37258 1 1 6.37258 1 13C1 19.6274 6.37258 25 13 25C19.6274 25 25 19.6274 25 13C25 11.7458 24.8075 10.5364 24.4506 9.4" stroke="white" stroke-width="1.5" stroke-linecap="round"/>
<path d="M19 13C19 16.3137 16.3137 19 13 19C9.6863 19 7 16.3137 7 13C7 9.6863 9.6863 7 13 7" stroke="white" stroke-width="1.5" stroke-linecap="round" stroke-linejoin="round"/>
<path d="M22 4L13 13M22 4V1M22 4H25" stroke="white" stroke-width="1.5" stroke-linecap="round"/>
</svg>
